<?xml version="1.0" encoding="iso-8859-1"?>
<!-- Generator: Adobe Illustrator 19.0.0, SVG Export Plug-In . SVG Version: 6.00 Build 0)  -->
<svg version="1.1" id="Capa_1" xmlns="http://www.w3.org/2000/svg" xmlns:xlink="http://www.w3.org/1999/xlink" x="0px" y="0px"
	 viewBox="0 0 490 490" style="enable-background:new 0 0 490 490;" xml:space="preserve">
<g>
	<g>
		<g>
			<path d="M83.8,461.2c0,15.9,12.8,28.8,28.8,28.8h264.8c15.9,0,28.8-12.8,28.8-28.8v-51.7H83.8V461.2z"/>
			<g>
				<path d="M350.2,84.4c0-0.8-6.6-31.5-6.6-31.5C337,21.8,314.4,0,288.4,0h-87.1c-26.1,0-48.6,21.8-55.2,52.9
					c0,0-6.6,31.1-6.6,31.5H83.8v94.4c0,12.9,10.5,23.4,23.4,23.4H144v-79.3h38.1v79.3h125.2v-79.3h38.1v79.3h36.8
					c12.9,0,23.4-10.5,23.4-23.4V84.4H350.2z M159.3,84.8v-0.4l5.8-27.6c4.7-21.8,19.4-37.3,36.2-37.3h87.1
					c16.7,0,31.5,15.6,36.2,37.7l5.8,27.6H159.3z"/>
				<path d="M345.5,221.7V245h-38.1v-23.3H182.2V245h-38.1v-23.3h-39.3c-7.8,0-14.8-2.3-21-6.2v174.6h322V215.4
					c-6.2,3.9-13.2,6.2-21,6.2h-39.3V221.7z M182.2,355.8h-38.1v-32.7h38.1V355.8L182.2,355.8z M194.6,300.2H132v-35.8h62.6V300.2z
					 M345.1,355.8H307v-32.7h38.1V355.8z M357.6,300.2H295v-35.8h62.6V300.2z"/>
			</g>
		</g>
	</g>
</g>
<g>
</g>
<g>
</g>
<g>
</g>
<g>
</g>
<g>
</g>
<g>
</g>
<g>
</g>
<g>
</g>
<g>
</g>
<g>
</g>
<g>
</g>
<g>
</g>
<g>
</g>
<g>
</g>
<g>
</g>
</svg>
